<?xml version="1.0" encoding="UTF-8"?> <svg xmlns="http://www.w3.org/2000/svg" xmlns:xlink="http://www.w3.org/1999/xlink" id="Layer_1" data-name="Layer 1" version="1.1" viewBox="0 0 648.78 159.93"><defs><style> .cls-1 { fill: #0e5c97; } .cls-1, .cls-2, .cls-3, .cls-4, .cls-5 { stroke-width: 0px; } .cls-6 { clip-path: url(#clippath); } .cls-2 { fill: none; } .cls-3 { fill: #095a96; } .cls-4 { fill: url(#linear-gradient); } .cls-7 { clip-path: url(#clippath-1); } .cls-5 { fill: #fff; } </style><clipPath id="clippath"><path class="cls-2" d="M730.2,152.45c-1.54.13-3.09.21-4.64.25-.42.01-.76.22-.75.48.04.94.07,1.88.11,2.83.01.26.38.46.83.45,1.62-.04,3.25-.13,4.87-.27.44-.04.78-.28.75-.54-.12-.94-.23-1.87-.35-2.81-.03-.23-.34-.4-.71-.4-.04,0-.07,0-.11,0M703.86,146.12h0M694.45,138.95c-.39.86-.78,1.73-1.17,2.59-.11.24.11.57.49.75,1.37.64,2.75,1.23,4.15,1.77.38.15.77.07.85-.18.32-.89.63-1.79.95-2.68.09-.25-.14-.56-.5-.7-1.32-.52-2.63-1.08-3.93-1.69-.14-.06-.28-.1-.41-.1-.2,0-.36.08-.43.22M735.2,130.47h0s0,0,0,0c0,0,0,0,0,0M679.37,129.83c-.64.79-1.28,1.59-1.92,2.38-.16.2-.57.33-.24.61,1.16.99,2.35,1.93,3.56,2.83-.67.96-1.34,1.92-2.01,2.89-.15.21.38.63.75.9,1.85,1.33,3.74,2.56,5.68,3.7.39.23.25.12.38-.1.63-1.15,1.26-2.3,1.89-3.44.13-.23.39-.39.03-.6-1.67-.99-3.32-2.06-4.93-3.21.51-.75,1.01-1.51,1.52-2.26.15-.22-.39-.43-.72-.67-1.29-.95-2.55-1.95-3.78-3-.11-.1-.15-.15-.16-.18,0,.02,0,.07-.06.15M679.43,129.68s0-.01,0-.01,0,0,0,.01M668.89,129.5c-.45.45-.89.91-1.34,1.36-.18.19-.06.62.27.97.81.84,1.64,1.66,2.49,2.46.35.33.77.43.94.23.42-.48.83-.96,1.25-1.44.17-.2.04-.61-.3-.93-.81-.77-1.61-1.56-2.4-2.37-.22-.23-.48-.36-.68-.36-.09,0-.17.03-.23.09M721.08,128.89c-.05,1.01-.11,2.02-.16,3.03-.01.26.2.94.51.96.95.05,1.9.07,2.86.06.01.85.02,1.7.04,2.55,0,.26.87.26,1.19.25,1.28-.03,2.56-.1,3.84-.22.33-.03.93-.1.9-.36-.12-1-.24-2.01-.36-3.01-.03-.26-.62-.4-.93-.38-1.19.11-2.39.17-3.59.2-.03-1.01-.06-2.01-.09-3.02,0-.26-.04-.75-.32-.74-1.12.02-2.24,0-3.35-.06h-.01c-.28,0-.52.46-.54.72M710.65,126.99c-.26.98-.52,1.96-.78,2.94-.07.25.22.24.52.32,1.11.29,2.23.54,3.36.76-.03,0,.41.49.4.55-.24,1.39-.48,2.79-.72,4.19-1.4-.25-2.79-.56-4.17-.91-.33-.08-.78.48-.84.73-.25.98-.5,1.97-.74,2.95-.06.25.12.82.48.91,1.38.35,2.77.66,4.16.92.36.06.42-.43.46-.69.16-.99.33-1.98.5-2.97,1.67.3,3.34.53,5.02.69.06-.08.13-.15.19-.23.09-.5.18-1,.28-1.49.03-.15.21-.25.4-.22.52.08,1.04.15,1.57.21.05-1.09.1-2.18.15-3.26.01-.26-.24-.48-.54-.5-1.97-.14-3.94-.38-5.9-.73.02,0-.2-.15-.19-.21.18-1,.35-1.99.53-2.99.04-.26.11-.55-.17-.6-1.11-.21-2.21-.46-3.3-.74-.04-.01-.07-.01-.11-.01-.25,0-.5.2-.56.42M684.55,123.48c-.61.73-1.21,1.47-1.81,2.2-.17.2-.06.57.23.82,1.08.91,2.18,1.77,3.3,2.59.31.23.68.23.82.02.54-.78,1.08-1.57,1.62-2.35.15-.21.03-.56-.26-.77-1.05-.78-2.09-1.59-3.1-2.45-.15-.13-.33-.2-.49-.2-.13,0-.24.04-.31.13M694.2,122.99c-.55.86-1.1,1.72-1.64,2.58-.14.22.03.97.33,1.16,1.04.66,2.09,1.28,3.16,1.87,0,0,.5-.05.49-.03-.77,1.48-1.53,2.96-2.3,4.44-1.29-.69-2.56-1.43-3.81-2.23-.31-.2-.85-.47-.98-.25-.54.86-1.08,1.73-1.61,2.59-.14.22.31.7.64.91,1.3.82,2.62,1.59,3.96,2.31.34.18.15-.1.27-.33.37-.72.73-1.44,1.1-2.16,2.24,1.2,4.54,2.26,6.87,3.18.34.13.65-.29.74-.53.56-1.54,1.12-3.08,1.69-4.61,1.2.46,2.42.88,3.64,1.27.32.1.97.28,1.04.03.27-.98.55-1.95.83-2.93.07-.25-.48-.63-.78-.72-1.16-.36-2.32-.77-3.46-1.21-.29-.11-1.08-.21-1.18.03-.29.73-.59,1.47-.88,2.2-1.7-.7-3.38-1.48-5.02-2.35,0,0-.53-.08-.52-.1.47-.9.94-1.8,1.42-2.7.12-.23.63-.68.35-.83-1.07-.58-2.13-1.21-3.17-1.88-.06-.04-.15-.05-.25-.05-.34,0-.82.19-.93.36M674.79,117.5c-.72.62-1.44,1.24-2.17,1.87-.2.17-.14.57.13.9.98,1.18,2,2.31,3.04,3.4.29.3.67.39.85.2.66-.68,1.33-1.37,1.99-2.05.18-.19.11-.57-.16-.85-.98-1.03-1.94-2.1-2.86-3.22-.17-.21-.4-.33-.59-.33-.09,0-.17.03-.23.08M684.47,114.16c-.69.66-1.37,1.32-2.06,1.98-.19.18-.14.54.1.8.89.94,1.81,1.85,2.74,2.71.26.24.61.27.78.07.62-.72,1.25-1.43,1.88-2.15.17-.2.12-.53-.12-.76-.88-.81-1.73-1.66-2.56-2.54-.14-.15-.31-.22-.47-.22-.11,0-.21.04-.28.11M744.96,152.58c.17-.01.34-.03.52-.04-.11.04-.22.06-.33.06-.06,0-.13,0-.19-.02M744.74,152.58c-.14-.04-.25-.16-.27-.24-.02-.14-.07-.35-.09-.5-.04-.25-.09-.54-.13-.79-.02-.11.11-.25.29-.29.66-.15,1.32-.32,1.99-.5.18-.05.34,0,.37.11.07.37.15.74.22,1.1-.32.22-.64.48-.95.7-.43.14-.85.28-1.27.4-.02,0-.05.01-.07.01-.03,0-.05,0-.08,0M740.69,147.12c.93-.18,1.86-.37,2.78-.58.35-.08.67.03.71.25.15.81.3,1.62.44,2.42.04.22-.22.47-.59.56-.36.08-.72.16-1.07.24-.76-.96-1.52-1.92-2.26-2.89M751.37,148.95c-.14-.54-.29-1.08-.44-1.61-.04-.15.12-.33.37-.42.88-.3,1.76-.62,2.63-.96.24-.09.47-.05.52.09.17.52.34,1.04.51,1.57-.1.15-.2.3-.31.44-.02,0-.03.02-.04.02-.9.35-1.8.67-2.71.98-.08.03-.16.04-.23.04-.15,0-.26-.06-.29-.16M723.14,146.91c-.39-.01-.69-.23-.68-.48.04-.91.08-1.82.12-2.74.01-.25.32-.44.68-.43,1.33.04,2.67.04,4.01,0,.37-.01.67.18.68.43.03.91.07,1.82.1,2.73,0,.25-.3.46-.68.48-.71.02-1.42.03-2.12.03s-1.4-.01-2.1-.03M749.35,143.83c-.11-.39-.21-.77-.32-1.16-.03-.11.08-.24.24-.29.59-.2,1.18-.41,1.77-.62.16-.06.32-.02.35.08.12.38.24.77.36,1.15.03.11-.07.24-.24.3-.6.22-1.21.43-1.82.63-.05.02-.1.02-.15.02-.1,0-.19-.04-.21-.12M728.75,139.59c.21,0,.38.12.38.27,0,.56-.01,1.12-.02,1.67,0,.15-.18.28-.4.29-.8.01-1.6.01-2.4,0-.22,0-.39-.13-.38-.29.04-.56.07-1.12.1-1.67,0-.15.19-.27.4-.27.38,0,.76.01,1.14.01s.78,0,1.18-.01M756.54,142.33c-.2-.52-.4-1.04-.6-1.56-.06-.14.08-.34.3-.44.81-.37,1.61-.75,2.41-1.16.22-.11.45-.09.51.05.23.51.45,1.02.68,1.53.06.14-.07.35-.3.46-.82.41-1.65.81-2.48,1.19-.09.04-.18.06-.26.06-.12,0-.22-.05-.25-.13M744.15,140.97c-.12-.54-.24-1.09-.36-1.63-.03-.15.12-.31.33-.37.78-.21,1.55-.43,2.32-.67.21-.07.42,0,.46.15.15.54.29,1.07.44,1.61.04.15-.1.32-.32.39-.8.25-1.6.48-2.4.69-.05.01-.1.02-.15.02-.16,0-.28-.07-.31-.19M740.41,138.12c.21-.04.4.04.43.19.1.55.2,1.1.29,1.65.03.15-.13.31-.34.36-.47.1-.94.19-1.41.28-.32.06-.64.12-.96.17-.22.04-.41-.06-.43-.21-.07-.55-.14-1.11-.21-1.66-.02-.15.13-.3.35-.34.29-.09.57-.18.85-.28,0,.04.02.08.02.12.47-.09.94-.18,1.41-.28M748.51,136.21c-.17-.53-.33-1.06-.5-1.59-.05-.15.08-.32.28-.39.72-.26,1.44-.54,2.16-.83.2-.08.4-.03.45.11.19.52.39,1.04.58,1.56.05.14-.07.33-.27.41-.74.3-1.49.59-2.24.86-.06.02-.12.03-.18.03-.13,0-.25-.06-.28-.16M742.78,134.59c-.09-.39-.18-.78-.28-1.17-.02-.11.07-.22.21-.26.51-.14,1.01-.28,1.52-.43.14-.04.27.01.3.12.11.39.21.77.32,1.16.03.11-.06.23-.21.27-.52.15-1.04.3-1.56.44-.03,0-.06.01-.09.01-.11,0-.19-.05-.21-.14M735.14,130.02c-.02-.15.18-.11.36-.14.65-.07,1.3-.18,1.95-.27.18-.03.34.09.37.24.09.53.18,1.05.27,1.58.55-.1,1.1-.22,1.65-.34.18-.04.36.05.39.2.11.55.22,1.09.34,1.64.03.15-.1.31-.29.35-.66.15-1.32.28-1.99.41,0-.04-.08-.08-.17-.12-.08-.26-.21-.51-.4-.74-.01-.05-.01-.12-.02-.17-.01-.02,0-.05-.02-.07-.04-.24-.03-.53-.07-.77-.2.04-.41.09-.52,0-.01,0-.03-.02-.04-.03-.18-.14-.75.28-1.09.33-.19.03-.44-.36-.46-.51-.02-.41-.24-1.08-.19-1.15,0-.01-.02-.31-.06-.44M763.96,131.96c-.29-.48-.57-.95-.86-1.43-.08-.13.01-.34.2-.47.7-.47,1.38-.96,2.06-1.47.19-.14.41-.15.49-.02.28.42.56.83.84,1.25.03.13.06.26.09.39-.04.08-.1.17-.19.23-.71.52-1.42,1.03-2.14,1.51-.1.07-.21.1-.3.1s-.16-.03-.2-.1M753.45,130.47c-.16-.36-.33-.73-.49-1.1-.04-.1.02-.23.16-.3.48-.24.96-.48,1.44-.74.13-.07.27-.05.32.05.18.36.35.72.53,1.08.05.1-.02.24-.16.31-.49.26-.98.51-1.48.76-.05.02-.1.04-.15.04-.08,0-.15-.03-.18-.1M744.42,128.24c-.16-.53-.33-1.06-.49-1.59-.04-.15.06-.31.23-.37.62-.21,1.24-.43,1.86-.66.17-.07.35,0,.4.14.19.52.38,1.04.57,1.57.05.14-.05.32-.23.38-.64.24-1.29.48-1.94.69-.04.01-.09.02-.13.02-.13,0-.24-.07-.28-.18M756.68,115.88c-2.33,2.29-4.84,4.26-7.51,5.92-6.55,3.91-12.29,5.21-15.44,5.67-.65.09-1.32.18-1.99.25-.1-.11-.16-.17-.16-.17.42,2.81.85,5.62,1.29,8.43,1.09-.07,2.18-.17,3.27-.31.33-.05.61.15.64.4.11.91.22,1.82.33,2.73.03.25-.23.5-.58.55-1.26.18-2.53.33-3.8.43-.35.03-.64-.15-.65-.4-.03-.75-.06-1.51-.09-2.26-3.49.46-7.02.62-10.54.47,0,.03,0,.06-.01.09-.02.15-.2.26-.41.24-.51-.05-1.01-.12-1.51-.18-.03.04-.07.08-.1.12-.21,3.31-.4,6.62-.57,9.93-1.91-.16-3.82-.39-5.72-.7-.02,0-.02,0-.04,0,.2-1.51.41-3.02.62-4.54.03-.25-.92-.21-1.29-.28-2.44-.43-4.87-1-7.26-1.71-.36-.11-.69-.38-.77-.13-.48,1.65-.96,3.31-1.43,4.97-.03.1.04.29.11.4,0,0,0,.02,0,.04,0,.02.01.04,0,.04-1.53-.46-3.04-.98-4.55-1.55-.38-.14-1.35-.44-1.44-.2-.36.95-.71,1.9-1.07,2.86-.09.25.84.76,1.25.91,1.58.6,3.18,1.14,4.79,1.62.41.12,1.29.23,1.35-.02.25-.98.51-1.96.76-2.95.03-.1-.25-.31-.32-.42,0,0-.06-.02-.11-.05-.05-.02-.11-.05-.11-.05,2.6.77,5.23,1.38,7.89,1.85.4.07,1.43.09,1.46-.17-.21,1.6-.42,3.2-.63,4.81,0,.06-.74.17-.71.17-1.37-.22-2.74-.48-4.1-.78-.42-.09-1.43-.22-1.49.03-.21.99-.42,1.98-.62,2.98-.05.25.96.61,1.4.7,1.74.38,3.48.69,5.24.95.45.07,1.42.08,1.45-.18.1-1.01.21-2.01.31-3.02,0-.06-.55-.44-.59-.44,2.54.35,5.1.58,7.65.68.43.02.79,0,.79-.25,0-1.48.01-2.95.02-4.43,3.43.1,6.87-.04,10.28-.42-.11-1.19-.22-2.39-.33-3.58-.03-.36.38-.69.91-.75,1.96-.21,3.9-.51,5.84-.9.53-.11.86.12.93.48.19,1.18.38,2.36.56,3.54.03.12.05.24.07.35.07.35.16,1.33-.42,1.44-.12.02-.24.05-.35.07-1.37.15-2.74.26-4.1.34.29,1.61,1.15,4.12,1.45,5.72,3.98-.57,7.93-1.41,11.89-2.47,37.7-10.07,23.83-41.95,12.31-45.84-.02,3.33-1.39,6.33-4.1,8.99M766.33,39.27c-.62.72-1.25,1.43-1.88,2.15-.17.2-.12.53.12.76.87.81,1.73,1.66,2.56,2.54.23.24.56.29.75.12.69-.66,1.38-1.32,2.06-1.98.19-.18.14-.54-.1-.8-.89-.94-1.81-1.85-2.74-2.71-.14-.13-.32-.2-.47-.2-.12,0-.23.04-.31.13M775.72,35.14c-.66.68-1.32,1.37-1.99,2.05-.18.19-.11.57.16.85.98,1.03,1.94,2.1,2.86,3.21.25.31.62.42.82.25.72-.62,1.44-1.24,2.16-1.87.2-.17.14-.57-.13-.9-.98-1.18-2-2.31-3.04-3.4-.18-.19-.41-.3-.59-.3-.1,0-.19.03-.26.1M666.33,41.9c-1.98,7.6-1.75,15.19.7,22.76,2.5,7.75,6.72,14,12.63,18.74s12.68,7.38,20.28,7.92l1.31.09c.31.03.62.08.93.1l47.48,3.11c.88.05,1.7.17,2.48.35,29.18.42,30.49,27.09,31.29,31.27,1.68-3.04,2.99-6.31,3.91-9.82,1.98-7.6,1.75-15.19-.7-22.75-2.51-7.75-6.72-14-12.63-18.74-5.92-4.74-12.68-7.38-20.28-7.92l-1.31-.09c-.31-.03-.62-.08-.93-.1l-47.48-3.11c-.88-.05-1.7-.17-2.48-.35-29.18-.42-30.49-27.09-31.3-31.27-1.68,3.04-2.99,6.31-3.91,9.82M765.26,29.89c-.54.78-1.07,1.57-1.61,2.35-.15.22-.03.56.26.77,1.05.78,2.09,1.59,3.1,2.45.28.23.64.26.8.06.6-.73,1.21-1.47,1.81-2.2.17-.2.06-.57-.23-.82-1.08-.91-2.18-1.77-3.3-2.59-.16-.12-.33-.17-.48-.17s-.27.05-.34.16M772.93,29.31s.01.02,0,0M781.11,24.48c-.42.48-.83.96-1.25,1.44-.17.2-.04.61.3.93.81.77,1.61,1.56,2.39,2.37.32.33.73.46.91.27.45-.45.89-.9,1.34-1.36.18-.19.06-.62-.27-.97-.82-.84-1.64-1.66-2.49-2.46-.23-.21-.49-.33-.68-.33-.11,0-.19.03-.25.1M726.84,23.25c-1.28.03-2.56.1-3.84.22-.33.03-.93.1-.9.36.12,1,.24,2.01.36,3.01.03.26.62.4.93.38,1.19-.11,2.39-.17,3.59-.2.03,1.01.06,2.01.09,3.02,0,.26.04.75.32.74,1.12-.02,2.23,0,3.35.06.29.01.54-.46.55-.72.05-1.01.11-2.02.16-3.03.01-.26-.2-.94-.51-.96-.95-.05-1.91-.07-2.86-.06-.01-.85-.02-1.7-.04-2.55,0-.22-.61-.26-1-.26-.07,0-.14,0-.19,0M750.95,22.51c-.56,1.54-1.13,3.08-1.7,4.61-1.2-.46-2.42-.88-3.64-1.26-.32-.1-.97-.28-1.04-.03-.27.98-.55,1.95-.83,2.93-.07.25.48.63.78.72,1.16.36,2.32.77,3.46,1.21.29.11,1.08.21,1.18-.03.29-.73.58-1.47.88-2.2,1.7.7,3.38,1.48,5.02,2.35,0,0,.53.08.52.1-.47.9-.94,1.8-1.42,2.7-.12.23-.63.68-.35.83,1.07.59,2.13,1.21,3.17,1.87.26.17,1.03-.09,1.17-.3.55-.86,1.1-1.72,1.64-2.58.14-.22-.04-.97-.33-1.15-1.04-.66-2.09-1.28-3.16-1.87,0,0-.5.05-.49.03.77-1.48,1.54-2.96,2.3-4.44,1.29.69,2.56,1.44,3.81,2.23.31.2.85.47.98.25.54-.86,1.08-1.73,1.61-2.59.14-.22-.31-.7-.64-.91-1.3-.82-2.62-1.59-3.96-2.31-.34-.18-.15.1-.27.33-.37.72-.73,1.44-1.1,2.16-2.24-1.2-4.54-2.26-6.87-3.18-.04-.02-.09-.03-.13-.03-.29,0-.53.35-.6.56M739.58,19.34c-.16.99-.33,1.98-.49,2.97-1.67-.3-3.34-.53-5.02-.69-.06.08-.13.15-.19.23-.09.5-.18,1-.28,1.49-.03.15-.21.25-.4.22-.52-.08-1.04-.15-1.57-.21-.05,1.09-.1,2.18-.15,3.26-.01.26.24.48.54.5,1.97.14,3.94.38,5.9.73-.02,0,.2.15.19.21-.18,1-.35,2-.53,2.99-.05.26-.11.55.17.6,1.11.21,2.21.46,3.3.74.28.07.6-.15.67-.4.26-.98.52-1.96.78-2.94.07-.25-.22-.24-.52-.32-1.11-.29-2.23-.54-3.35-.76.02,0-.41-.49-.4-.55.24-1.4.48-2.79.72-4.19,1.4.25,2.79.56,4.17.91.33.08.78-.48.84-.73.25-.98.5-1.97.74-2.95.06-.25-.12-.82-.48-.91-1.38-.35-2.77-.66-4.16-.92-.02,0-.04,0-.06,0-.3,0-.36.45-.4.69M766.78,15.96c-.63,1.15-1.26,2.3-1.89,3.44-.13.23-.39.39-.03.6,1.67.99,3.32,2.06,4.92,3.21-.51.76-1.01,1.51-1.52,2.26-.15.22.39.43.72.67,1.29.95,2.55,1.95,3.78,3,.11.1.15.15.16.18,0-.02,0-.07.06-.15.64-.79,1.28-1.59,1.92-2.38.16-.2.57-.33.23-.61-1.16-.99-2.35-1.93-3.56-2.83.67-.96,1.34-1.92,2.01-2.89.15-.21-.38-.63-.75-.9-1.85-1.33-3.74-2.56-5.68-3.7-.15-.09-.22-.13-.26-.13-.06,0-.04.09-.12.23M753.6,15.11c-.32.89-.63,1.79-.95,2.68-.09.25.14.55.5.7,1.32.52,2.63,1.08,3.93,1.69.36.17.73.11.84-.12.39-.86.78-1.73,1.17-2.59.11-.24-.11-.58-.49-.75-1.37-.64-2.75-1.23-4.15-1.77-.13-.05-.26-.07-.38-.07-.23,0-.41.09-.47.25M726.61,2.54c-1.62.04-3.25.13-4.87.27-.45.04-.78.28-.75.54.12.93.23,1.87.34,2.81.03.26.4.43.82.4,1.54-.13,3.09-.21,4.63-.25.43-.01.76-.22.75-.48-.04-.94-.07-1.88-.11-2.83-.01-.25-.36-.45-.79-.45h-.03M705.95,33.23c-.19-.52-.38-1.04-.57-1.57-.05-.14.05-.32.23-.38.64-.24,1.29-.47,1.94-.69.18-.06.36.01.4.16.16.53.33,1.06.49,1.59.04.15-.06.31-.23.37-.62.21-1.24.43-1.86.67-.04.02-.09.02-.13.02-.12,0-.23-.06-.27-.17M697.49,30.6c-.18-.36-.36-.72-.53-1.08-.05-.1.02-.24.16-.31.49-.26.98-.51,1.48-.75.14-.07.28-.04.33.06.16.36.33.73.49,1.1.04.1-.02.23-.16.3-.48.24-.96.48-1.44.73-.05.03-.11.04-.15.04-.08,0-.14-.03-.17-.09M686.5,30.42c-.28-.42-.56-.83-.84-1.25-.03-.13-.06-.26-.09-.39.04-.08.1-.17.19-.24.7-.52,1.42-1.02,2.14-1.51.2-.13.42-.13.5,0,.28.48.57.95.86,1.43.08.13-.01.34-.2.47-.69.47-1.38.96-2.07,1.47-.1.07-.21.11-.3.11-.08,0-.15-.03-.19-.09M712.24,27.7c-.11-.55-.23-1.09-.34-1.64-.03-.15.1-.31.29-.35.66-.15,1.33-.28,1.99-.41,0,.04.08.08.17.12.08.26.21.51.4.73.01.05.01.12.02.17.01.01,0,.05.02.07.04.24.03.53.07.77.2-.04.41-.09.52,0,.01.01.02.02.04.03.18.14.75-.28,1.09-.34.19-.03.44.36.46.51.02.41.24,1.09.19,1.15h0s.02.31.06.44c.02.15-.18.12-.36.14-.65.07-1.3.18-1.95.27-.18.03-.34-.09-.37-.24-.09-.53-.18-1.05-.27-1.58-.55.1-1.1.22-1.65.34-.03,0-.06,0-.09,0-.15,0-.28-.08-.3-.21M707.82,26.16c-.11-.39-.21-.77-.32-1.16-.03-.11.06-.23.21-.27.52-.15,1.04-.3,1.56-.44.14-.04.28.02.3.12.09.39.18.78.27,1.17.03.11-.07.22-.21.26-.51.14-1.01.28-1.52.43-.03,0-.06.01-.1.01-.1,0-.19-.05-.21-.13M701.46,25.49c-.19-.52-.39-1.04-.58-1.56-.05-.14.07-.33.27-.41.74-.3,1.49-.59,2.24-.86.21-.07.41-.02.46.13.17.53.33,1.06.5,1.59.05.15-.08.32-.28.39-.72.26-1.44.54-2.16.83-.06.03-.13.04-.19.04-.12,0-.23-.05-.26-.15M711.52,20.68c-.1-.55-.2-1.1-.29-1.65-.03-.15.13-.31.35-.36.47-.1.94-.19,1.41-.28.32-.06.64-.12.96-.17.22-.04.41.06.43.21.07.55.14,1.11.21,1.66.02.15-.14.3-.34.34-.29.09-.57.18-.85.28,0-.04-.02-.08-.03-.12-.47.09-.94.18-1.41.28-.04,0-.07.01-.11.01-.16,0-.3-.08-.32-.2M705.47,20.55c-.15-.54-.29-1.07-.44-1.61-.04-.15.1-.32.32-.39.8-.25,1.6-.48,2.4-.69.22-.06.43.01.46.17.12.54.24,1.09.36,1.63.03.15-.11.31-.33.37-.78.21-1.55.43-2.32.67-.06.02-.11.03-.16.03-.14,0-.26-.06-.29-.17M723.23,19.14c0-.56.01-1.12.02-1.67,0-.15.18-.28.4-.29.8-.01,1.6-.01,2.4,0,.22,0,.39.13.38.29-.04.56-.07,1.11-.11,1.67,0,.15-.19.27-.4.27-.77-.01-1.54-.01-2.31,0h0c-.21,0-.37-.12-.37-.27M693.21,19.76c-.23-.51-.45-1.02-.68-1.52-.06-.14.07-.35.3-.46.82-.41,1.65-.81,2.48-1.19.23-.11.46-.07.51.07.2.52.4,1.04.6,1.56.06.14-.08.34-.3.44-.81.37-1.61.75-2.41,1.16-.09.05-.19.07-.27.07-.11,0-.2-.04-.24-.12M700.96,17.15c-.12-.38-.24-.77-.36-1.15-.03-.1.07-.24.24-.3.6-.22,1.21-.43,1.82-.63.17-.05.32-.01.35.09.11.39.21.77.32,1.16.03.11-.08.24-.24.29-.59.2-1.19.41-1.77.62-.05.02-.11.03-.15.03-.1,0-.18-.04-.2-.11M724.41,15.3c-.03-.91-.07-1.82-.1-2.73,0-.25.3-.46.68-.48,1.41-.04,2.82-.04,4.23,0,.39.01.69.23.68.48-.04.91-.08,1.82-.12,2.74-.01.25-.32.44-.68.43-1.34-.04-2.67-.04-4.01,0h-.03c-.35,0-.64-.19-.65-.43M697.91,12.94c-.17-.52-.34-1.04-.51-1.57.1-.15.2-.3.31-.44.01,0,.03-.02.04-.02.9-.35,1.8-.67,2.71-.98.25-.09.49-.03.52.12.14.54.29,1.08.44,1.61.04.15-.12.33-.37.41-.88.3-1.76.62-2.63.96-.09.03-.17.05-.25.05-.13,0-.24-.05-.27-.14M708.18,12.2c-.15-.81-.3-1.61-.44-2.42-.04-.22.22-.47.59-.56.36-.08.71-.16,1.07-.24.76.96,1.52,1.92,2.27,2.89-.93.18-1.86.37-2.78.58-.08.02-.15.03-.23.03-.25,0-.45-.1-.49-.28M705.46,8.62c-.07-.37-.15-.73-.22-1.1.32-.22.64-.48.95-.7.42-.14.85-.28,1.27-.4.05-.02.1-.01.15,0,.14.04.25.16.27.24.02.14.07.35.09.5.04.25.09.54.13.79.02.11-.11.25-.29.29-.66.15-1.32.33-1.99.5-.05.01-.1.02-.14.02-.12,0-.21-.05-.23-.12M707.41,6.41c-.17.02-.35.03-.52.03.18-.06.35-.08.52-.03M738.83,2.62c-.1,1.01-.21,2.01-.31,3.02,0,.06.55.44.59.44-2.54-.36-5.1-.58-7.65-.68-.43-.02-.79,0-.79.25,0,1.48-.01,2.95-.02,4.43-3.43-.1-6.87.04-10.28.42.11,1.19.22,2.39.33,3.59.03.36-.38.69-.91.75-1.96.21-3.91.51-5.84.9-.53.11-.86-.12-.93-.48-.19-1.18-.38-2.36-.56-3.54-.02-.12-.05-.24-.07-.35-.07-.35-.16-1.33.42-1.44.12-.02.24-.05.35-.07,1.37-.15,2.74-.26,4.1-.34-.29-1.61-1.15-4.12-1.45-5.72-3.98.57-7.93,1.41-11.89,2.47-37.7,10.07-23.83,41.95-12.31,45.84.02-3.33,1.39-6.33,4.1-8.99,2.33-2.29,4.84-4.26,7.51-5.92,6.54-3.91,12.29-5.21,15.44-5.67.65-.09,1.32-.17,1.99-.25.1.11.16.17.16.17-.42-2.81-.85-5.62-1.3-8.43-1.09.07-2.18.17-3.27.31-.33.05-.61-.15-.64-.4-.11-.91-.22-1.82-.33-2.73-.03-.25.23-.5.58-.55,1.27-.18,2.53-.33,3.8-.43.35-.03.64.15.65.4.03.75.06,1.51.09,2.26,3.49-.46,7.02-.62,10.54-.47,0-.03,0-.06.01-.09.02-.15.2-.26.41-.24.51.06,1.01.12,1.51.18.03-.04.07-.08.1-.12.21-3.31.4-6.62.56-9.93,1.92.15,3.82.39,5.72.7.02,0,.02,0,.04,0-.2,1.51-.41,3.02-.62,4.54-.04.25.92.21,1.29.28,2.44.43,4.87,1,7.26,1.71.36.11.69.38.77.13.48-1.65.96-3.31,1.43-4.97.03-.1-.04-.29-.11-.4,0,0,0-.02,0-.04,0-.02,0-.04,0-.04,1.53.46,3.04.98,4.55,1.55.39.14,1.35.44,1.44.2.36-.95.71-1.9,1.07-2.86.09-.25-.84-.76-1.25-.91-1.58-.6-3.18-1.14-4.79-1.62-.41-.12-1.29-.23-1.35.02-.25.98-.51,1.96-.76,2.95-.03.1.25.31.32.41,0,0,.05.02.11.05.05.02.11.04.11.05-2.6-.77-5.23-1.38-7.88-1.85-.4-.07-1.43-.09-1.46.17.21-1.6.42-3.2.63-4.81,0-.06.74-.17.71-.17,1.37.22,2.74.48,4.1.78.42.09,1.43.22,1.49-.03.21-.99.42-1.99.62-2.98.05-.26-.96-.61-1.4-.7-1.74-.38-3.48-.69-5.24-.95-.16-.02-.39-.04-.62-.04-.41,0-.81.05-.83.22"></path></clipPath><clipPath id="clippath-1"><path class="cls-2" d="M65.2,152.45c-1.54.13-3.09.21-4.64.25-.42.01-.76.22-.75.48.04.94.07,1.88.11,2.83.01.26.38.46.83.45,1.62-.04,3.25-.13,4.87-.27.44-.04.78-.28.75-.54-.12-.94-.23-1.87-.35-2.81-.03-.23-.34-.4-.71-.4-.04,0-.07,0-.11,0M38.86,146.12h0M29.45,138.95c-.39.86-.78,1.73-1.17,2.59-.11.24.11.57.49.75,1.37.64,2.75,1.23,4.15,1.77.38.15.77.07.85-.18.32-.89.63-1.79.95-2.68.09-.25-.14-.56-.5-.7-1.32-.52-2.63-1.08-3.93-1.69-.14-.06-.28-.1-.41-.1-.2,0-.36.08-.43.22M70.2,130.47h0s0,0,0,0c0,0,0,0,0,0M14.37,129.83c-.64.79-1.28,1.59-1.92,2.38-.16.2-.57.33-.24.61,1.16.99,2.35,1.93,3.56,2.83-.67.96-1.34,1.92-2.01,2.89-.15.21.38.63.75.9,1.85,1.33,3.74,2.56,5.68,3.7.39.23.25.12.38-.1.63-1.15,1.26-2.3,1.89-3.44.13-.23.39-.39.03-.6-1.67-.99-3.32-2.06-4.93-3.21.51-.75,1.01-1.51,1.52-2.26.15-.22-.39-.43-.72-.67-1.29-.95-2.55-1.95-3.78-3-.11-.1-.15-.15-.16-.18,0,.02,0,.07-.06.15M14.43,129.68s0-.01,0-.01,0,0,0,.01M3.89,129.5c-.45.45-.89.91-1.34,1.36-.18.19-.06.62.27.97.81.84,1.64,1.66,2.49,2.46.35.33.77.43.94.23.42-.48.83-.96,1.25-1.44.17-.2.04-.61-.3-.93-.81-.77-1.61-1.56-2.4-2.37-.22-.23-.48-.36-.68-.36-.09,0-.17.03-.23.09M56.08,128.89c-.05,1.01-.11,2.02-.16,3.03-.01.26.2.94.51.96.95.05,1.9.07,2.86.06.01.85.02,1.7.04,2.55,0,.26.87.26,1.19.25,1.28-.03,2.56-.1,3.84-.22.33-.03.93-.1.9-.36-.12-1-.24-2.01-.36-3.01-.03-.26-.62-.4-.93-.38-1.19.11-2.39.17-3.59.2-.03-1.01-.06-2.01-.09-3.02,0-.26-.04-.75-.32-.74-1.12.02-2.24,0-3.35-.06h-.01c-.28,0-.52.46-.54.72M45.65,126.99c-.26.98-.52,1.96-.78,2.94-.07.25.22.24.52.32,1.11.29,2.23.54,3.36.76-.03,0,.41.49.4.55-.24,1.39-.48,2.79-.72,4.19-1.4-.25-2.79-.56-4.17-.91-.33-.08-.78.48-.84.73-.25.98-.5,1.97-.74,2.95-.06.25.12.82.48.91,1.38.35,2.77.66,4.16.92.36.06.42-.43.46-.69.16-.99.33-1.98.5-2.97,1.67.3,3.34.53,5.02.69.06-.08.13-.15.19-.23.09-.5.18-1,.28-1.49.03-.15.21-.25.4-.22.52.08,1.04.15,1.57.21.05-1.09.1-2.18.15-3.26.01-.26-.24-.48-.54-.5-1.97-.14-3.94-.38-5.9-.73.02,0-.2-.15-.19-.21.18-1,.35-1.99.53-2.99.04-.26.11-.55-.17-.6-1.11-.21-2.21-.46-3.3-.74-.04-.01-.07-.01-.11-.01-.25,0-.5.2-.56.42M19.55,123.48c-.61.73-1.21,1.47-1.81,2.2-.17.2-.06.57.23.82,1.08.91,2.18,1.77,3.3,2.59.31.23.68.23.82.02.54-.78,1.08-1.57,1.62-2.35.15-.21.03-.56-.26-.77-1.05-.78-2.09-1.59-3.1-2.45-.15-.13-.33-.2-.49-.2-.13,0-.24.04-.31.13M29.2,122.99c-.55.86-1.1,1.72-1.64,2.58-.14.22.03.97.33,1.16,1.04.66,2.09,1.28,3.16,1.87,0,0,.5-.05.49-.03-.77,1.48-1.53,2.96-2.3,4.44-1.29-.69-2.56-1.43-3.81-2.23-.31-.2-.85-.47-.98-.25-.54.86-1.08,1.73-1.61,2.59-.14.22.31.7.64.91,1.3.82,2.62,1.59,3.96,2.31.34.18.15-.1.27-.33.37-.72.73-1.44,1.1-2.16,2.24,1.2,4.54,2.26,6.87,3.18.34.13.65-.29.74-.53.56-1.54,1.12-3.08,1.69-4.61,1.2.46,2.42.88,3.64,1.27.32.1.97.28,1.04.03.27-.98.55-1.95.83-2.93.07-.25-.48-.63-.78-.72-1.16-.36-2.32-.77-3.46-1.21-.29-.11-1.08-.21-1.18.03-.29.73-.59,1.47-.88,2.2-1.7-.7-3.38-1.48-5.02-2.35,0,0-.53-.08-.52-.1.47-.9.94-1.8,1.42-2.7.12-.23.63-.68.35-.83-1.07-.58-2.13-1.21-3.17-1.88-.06-.04-.15-.05-.25-.05-.34,0-.82.19-.93.36M9.79,117.5c-.72.62-1.44,1.24-2.17,1.87-.2.17-.14.57.13.9.98,1.18,2,2.31,3.04,3.4.29.3.67.39.85.2.66-.68,1.33-1.37,1.99-2.05.18-.19.11-.57-.16-.85-.98-1.03-1.94-2.1-2.86-3.22-.17-.21-.4-.33-.59-.33-.09,0-.17.03-.23.08M19.47,114.16c-.69.66-1.37,1.32-2.06,1.98-.19.18-.14.54.1.8.89.94,1.81,1.85,2.74,2.71.26.24.61.27.78.07.62-.72,1.25-1.43,1.88-2.15.17-.2.12-.53-.12-.76-.88-.81-1.73-1.66-2.56-2.54-.14-.15-.31-.22-.47-.22-.11,0-.21.04-.28.11M79.96,152.58c.17-.01.34-.03.52-.04-.11.04-.22.06-.33.06-.06,0-.13,0-.19-.02M79.74,152.58c-.14-.04-.25-.16-.27-.24-.02-.14-.07-.35-.09-.5-.04-.25-.09-.54-.13-.79-.02-.11.11-.25.29-.29.66-.15,1.32-.32,1.99-.5.18-.05.34,0,.37.11.07.37.15.74.22,1.1-.32.22-.64.48-.95.7-.43.14-.85.28-1.27.4-.02,0-.05.01-.07.01-.03,0-.05,0-.08,0M75.69,147.12c.93-.18,1.86-.37,2.78-.58.35-.08.67.03.71.25.15.81.3,1.62.44,2.42.04.22-.22.47-.59.56-.36.08-.72.16-1.07.24-.76-.96-1.52-1.92-2.26-2.89M86.37,148.95c-.14-.54-.29-1.08-.44-1.61-.04-.15.12-.33.37-.42.88-.3,1.76-.62,2.63-.96.24-.09.47-.05.52.09.17.52.34,1.04.51,1.57-.1.15-.2.3-.31.44-.02,0-.03.02-.04.02-.9.35-1.8.67-2.71.98-.08.03-.16.04-.23.04-.15,0-.26-.06-.29-.16M58.14,146.91c-.39-.01-.69-.23-.68-.48.04-.91.08-1.82.12-2.74.01-.25.32-.44.68-.43,1.33.04,2.67.04,4.01,0,.37-.01.67.18.68.43.03.91.07,1.82.1,2.73,0,.25-.3.46-.68.48-.71.02-1.42.03-2.12.03s-1.4-.01-2.1-.03M84.35,143.83c-.11-.39-.21-.77-.32-1.16-.03-.11.08-.24.24-.29.59-.2,1.18-.41,1.77-.62.16-.06.32-.02.35.08.12.38.24.77.36,1.15.03.11-.07.24-.24.3-.6.22-1.21.43-1.82.63-.05.02-.1.02-.15.02-.1,0-.19-.04-.21-.12M63.75,139.59c.21,0,.38.12.38.27,0,.56-.01,1.12-.02,1.67,0,.15-.18.28-.4.29-.8.01-1.6.01-2.4,0-.22,0-.39-.13-.38-.29.04-.56.07-1.12.1-1.67,0-.15.19-.27.4-.27.38,0,.76.01,1.14.01s.78,0,1.18-.01M91.54,142.33c-.2-.52-.4-1.04-.6-1.56-.06-.14.08-.34.3-.44.81-.37,1.61-.75,2.41-1.16.22-.11.45-.09.51.05.23.51.45,1.02.68,1.53.06.14-.07.35-.3.46-.82.41-1.65.81-2.48,1.19-.09.04-.18.06-.26.06-.12,0-.22-.05-.25-.13M79.15,140.97c-.12-.54-.24-1.09-.36-1.63-.03-.15.12-.31.33-.37.78-.21,1.55-.43,2.32-.67.21-.07.42,0,.46.15.15.54.29,1.07.44,1.61.04.15-.1.32-.32.39-.8.25-1.6.48-2.4.69-.05.01-.1.02-.15.02-.16,0-.28-.07-.31-.19M75.41,138.12c.21-.04.4.04.43.19.1.55.2,1.1.29,1.65.03.15-.13.31-.34.36-.47.1-.94.19-1.41.28-.32.06-.64.12-.96.17-.22.04-.41-.06-.43-.21-.07-.55-.14-1.11-.21-1.66-.02-.15.13-.3.35-.34.29-.09.57-.18.85-.28,0,.04.02.08.02.12.47-.09.94-.18,1.41-.28M83.51,136.21c-.17-.53-.33-1.06-.5-1.59-.05-.15.08-.32.28-.39.72-.26,1.44-.54,2.16-.83.2-.08.4-.03.45.11.19.52.39,1.04.58,1.56.05.14-.07.33-.27.41-.74.3-1.49.59-2.24.86-.06.02-.12.03-.18.03-.13,0-.25-.06-.28-.16M77.78,134.59c-.09-.39-.18-.78-.28-1.17-.02-.11.07-.22.21-.26.51-.14,1.01-.28,1.52-.43.14-.04.27.01.3.12.11.39.21.77.32,1.16.03.11-.06.23-.21.27-.52.15-1.04.3-1.56.44-.03,0-.06.01-.09.01-.11,0-.19-.05-.21-.14M70.14,130.02c-.02-.15.18-.11.36-.14.65-.07,1.3-.18,1.95-.27.18-.03.34.09.37.24.09.53.18,1.05.27,1.58.55-.1,1.1-.22,1.65-.34.18-.04.36.05.39.2.11.55.22,1.09.34,1.64.03.15-.1.31-.29.35-.66.15-1.32.28-1.99.41,0-.04-.08-.08-.17-.12-.08-.26-.21-.51-.4-.74-.01-.05-.01-.12-.02-.17-.01-.02,0-.05-.02-.07-.04-.24-.03-.53-.07-.77-.2.04-.41.09-.52,0-.01,0-.03-.02-.04-.03-.18-.14-.75.28-1.09.33-.19.03-.44-.36-.46-.51-.02-.41-.24-1.08-.19-1.15,0-.01-.02-.31-.06-.44M98.96,131.96c-.29-.48-.57-.95-.86-1.43-.08-.13.01-.34.2-.47.7-.47,1.38-.96,2.06-1.47.19-.14.41-.15.49-.02.28.42.56.83.84,1.25.03.13.06.26.09.39-.04.08-.1.17-.19.23-.71.52-1.42,1.03-2.14,1.51-.1.07-.21.1-.3.1s-.16-.03-.2-.1M88.45,130.47c-.16-.36-.33-.73-.49-1.1-.04-.1.02-.23.16-.3.48-.24.96-.48,1.44-.74.13-.07.27-.05.32.05.18.36.35.72.53,1.08.05.1-.02.24-.16.31-.49.26-.98.51-1.48.76-.05.02-.1.04-.15.04-.08,0-.15-.03-.18-.1M79.42,128.24c-.16-.53-.33-1.06-.49-1.59-.04-.15.06-.31.23-.37.62-.21,1.24-.43,1.86-.66.17-.07.35,0,.4.14.19.52.38,1.04.57,1.57.05.14-.05.32-.23.38-.64.24-1.29.48-1.94.69-.04.01-.09.02-.13.02-.13,0-.24-.07-.28-.18M91.68,115.88c-2.33,2.29-4.84,4.26-7.51,5.92-6.55,3.91-12.29,5.21-15.44,5.67-.65.09-1.32.18-1.99.25-.1-.11-.16-.17-.16-.17.42,2.81.85,5.62,1.29,8.43,1.09-.07,2.18-.17,3.27-.31.33-.05.61.15.64.4.11.91.22,1.82.33,2.73.03.25-.23.5-.58.55-1.26.18-2.53.33-3.8.43-.35.03-.64-.15-.65-.4-.03-.75-.06-1.51-.09-2.26-3.49.46-7.02.62-10.54.47,0,.03,0,.06-.01.09-.02.15-.2.26-.41.24-.51-.05-1.01-.12-1.51-.18-.03.04-.07.08-.1.12-.21,3.31-.4,6.62-.57,9.93-1.91-.16-3.82-.39-5.72-.7-.02,0-.02,0-.04,0,.2-1.51.41-3.02.62-4.54.03-.25-.92-.21-1.29-.28-2.44-.43-4.87-1-7.26-1.71-.36-.11-.69-.38-.77-.13-.48,1.65-.96,3.31-1.43,4.97-.03.1.04.29.11.4,0,0,0,.02,0,.04,0,.02.01.04,0,.04-1.53-.46-3.04-.98-4.55-1.55-.38-.14-1.35-.44-1.44-.2-.36.95-.71,1.9-1.07,2.86-.09.25.84.76,1.25.91,1.58.6,3.18,1.14,4.79,1.62.41.12,1.29.23,1.35-.02.25-.98.51-1.96.76-2.95.03-.1-.25-.31-.32-.42,0,0-.06-.02-.11-.05-.05-.02-.11-.05-.11-.05,2.6.77,5.23,1.38,7.89,1.85.4.07,1.43.09,1.46-.17-.21,1.6-.42,3.2-.63,4.81,0,.06-.74.17-.71.17-1.37-.22-2.74-.48-4.1-.78-.42-.09-1.43-.22-1.49.03-.21.99-.42,1.98-.62,2.98-.05.25.96.61,1.4.7,1.74.38,3.48.69,5.24.95.45.07,1.42.08,1.45-.18.1-1.01.21-2.01.31-3.02,0-.06-.55-.44-.59-.44,2.54.35,5.1.58,7.65.68.43.02.79,0,.79-.25,0-1.48.01-2.95.02-4.43,3.43.1,6.87-.04,10.28-.42-.11-1.19-.22-2.39-.33-3.58-.03-.36.38-.69.91-.75,1.96-.21,3.9-.51,5.84-.9.53-.11.86.12.93.48.19,1.18.38,2.36.56,3.54.03.12.05.24.07.35.07.35.16,1.33-.42,1.44-.12.02-.24.05-.35.07-1.37.15-2.74.26-4.1.34.29,1.61,1.15,4.12,1.45,5.72,3.98-.57,7.93-1.41,11.89-2.47,37.7-10.07,23.83-41.95,12.31-45.84-.02,3.33-1.39,6.33-4.1,8.99M101.33,39.27c-.62.72-1.25,1.43-1.88,2.15-.17.2-.12.53.12.76.87.81,1.73,1.66,2.56,2.54.23.24.56.29.75.12.69-.66,1.38-1.32,2.06-1.98.19-.18.14-.54-.1-.8-.89-.94-1.81-1.85-2.74-2.71-.14-.13-.32-.2-.47-.2-.12,0-.23.04-.31.13M110.72,35.14c-.66.68-1.32,1.37-1.99,2.05-.18.19-.11.57.16.85.98,1.03,1.94,2.1,2.86,3.21.25.31.62.42.82.25.72-.62,1.44-1.24,2.16-1.87.2-.17.14-.57-.13-.9-.98-1.18-2-2.31-3.04-3.4-.18-.19-.41-.3-.59-.3-.1,0-.19.03-.26.1M1.33,41.9c-1.98,7.6-1.75,15.19.7,22.76,2.5,7.75,6.72,14,12.63,18.74s12.68,7.38,20.28,7.92l1.31.09c.31.03.62.08.93.1l47.48,3.11c.88.05,1.7.17,2.48.35,29.18.42,30.49,27.09,31.29,31.27,1.68-3.04,2.99-6.31,3.91-9.82,1.98-7.6,1.75-15.19-.7-22.75-2.51-7.75-6.72-14-12.63-18.74-5.92-4.74-12.68-7.38-20.28-7.92l-1.31-.09c-.31-.03-.62-.08-.93-.1l-47.48-3.11c-.88-.05-1.7-.17-2.48-.35-29.18-.42-30.49-27.09-31.3-31.27-1.68,3.04-2.99,6.31-3.91,9.82M100.26,29.89c-.54.78-1.07,1.57-1.61,2.35-.15.22-.03.56.26.77,1.05.78,2.09,1.59,3.1,2.45.28.23.64.26.8.06.6-.73,1.21-1.47,1.81-2.2.17-.2.06-.57-.23-.82-1.08-.91-2.18-1.77-3.3-2.59-.16-.12-.33-.17-.48-.17s-.27.05-.34.16M107.93,29.31s.01.02,0,0M116.11,24.48c-.42.48-.83.96-1.25,1.44-.17.2-.04.61.3.93.81.77,1.61,1.56,2.39,2.37.32.33.73.46.91.27.45-.45.89-.9,1.34-1.36.18-.19.06-.62-.27-.97-.82-.84-1.64-1.66-2.49-2.46-.23-.21-.49-.33-.68-.33-.11,0-.19.03-.25.1M61.84,23.25c-1.28.03-2.56.1-3.84.22-.33.03-.93.1-.9.36.12,1,.24,2.01.36,3.01.03.26.62.4.93.38,1.19-.11,2.39-.17,3.59-.2.03,1.01.06,2.01.09,3.02,0,.26.04.75.32.74,1.12-.02,2.23,0,3.35.06.29.01.54-.46.55-.72.05-1.01.11-2.02.16-3.03.01-.26-.2-.94-.51-.96-.95-.05-1.91-.07-2.86-.06-.01-.85-.02-1.7-.04-2.55,0-.22-.61-.26-1-.26-.07,0-.14,0-.19,0M85.95,22.51c-.56,1.54-1.13,3.08-1.7,4.61-1.2-.46-2.42-.88-3.64-1.26-.32-.1-.97-.28-1.04-.03-.27.98-.55,1.95-.83,2.93-.07.25.48.63.78.72,1.16.36,2.32.77,3.46,1.21.29.11,1.08.21,1.18-.03.29-.73.58-1.47.88-2.2,1.7.7,3.38,1.48,5.02,2.35,0,0,.53.08.52.1-.47.9-.94,1.8-1.42,2.7-.12.23-.63.68-.35.83,1.07.59,2.13,1.21,3.17,1.87.26.17,1.03-.09,1.17-.3.55-.86,1.1-1.72,1.64-2.58.14-.22-.04-.97-.33-1.15-1.04-.66-2.09-1.28-3.16-1.87,0,0-.5.05-.49.03.77-1.48,1.54-2.96,2.3-4.44,1.29.69,2.56,1.44,3.81,2.23.31.2.85.47.98.25.54-.86,1.08-1.73,1.61-2.59.14-.22-.31-.7-.64-.91-1.3-.82-2.62-1.59-3.96-2.31-.34-.18-.15.1-.27.33-.37.72-.73,1.44-1.1,2.16-2.24-1.2-4.54-2.26-6.87-3.18-.04-.02-.09-.03-.13-.03-.29,0-.53.35-.6.56M74.58,19.34c-.16.99-.33,1.98-.49,2.97-1.67-.3-3.34-.53-5.02-.69-.06.08-.13.15-.19.23-.09.5-.18,1-.28,1.49-.03.15-.21.25-.4.22-.52-.08-1.04-.15-1.57-.21-.05,1.09-.1,2.18-.15,3.26-.01.26.24.48.54.5,1.97.14,3.94.38,5.9.73-.02,0,.2.15.19.21-.18,1-.35,2-.53,2.99-.05.26-.11.55.17.6,1.11.21,2.21.46,3.3.74.28.07.6-.15.67-.4.26-.98.52-1.96.78-2.94.07-.25-.22-.24-.52-.32-1.11-.29-2.23-.54-3.35-.76.02,0-.41-.49-.4-.55.24-1.4.48-2.79.72-4.19,1.4.25,2.79.56,4.17.91.33.08.78-.48.84-.73.25-.98.5-1.97.74-2.95.06-.25-.12-.82-.48-.91-1.38-.35-2.77-.66-4.16-.92-.02,0-.04,0-.06,0-.3,0-.36.45-.4.69M101.78,15.96c-.63,1.15-1.26,2.3-1.89,3.44-.13.23-.39.39-.03.6,1.67.99,3.32,2.06,4.92,3.21-.51.76-1.01,1.51-1.52,2.26-.15.22.39.43.72.67,1.29.95,2.55,1.95,3.78,3,.11.1.15.15.16.18,0-.02,0-.07.06-.15.64-.79,1.28-1.59,1.92-2.38.16-.2.57-.33.23-.61-1.16-.99-2.35-1.93-3.56-2.83.67-.96,1.34-1.92,2.01-2.89.15-.21-.38-.63-.75-.9-1.85-1.33-3.74-2.56-5.68-3.7-.15-.09-.22-.13-.26-.13-.06,0-.04.09-.12.23M88.6,15.11c-.32.89-.63,1.79-.95,2.68-.09.25.14.55.5.7,1.32.52,2.63,1.08,3.93,1.69.36.17.73.11.84-.12.39-.86.78-1.73,1.17-2.59.11-.24-.11-.58-.49-.75-1.37-.64-2.75-1.23-4.15-1.77-.13-.05-.26-.07-.38-.07-.23,0-.41.09-.47.25M61.61,2.54c-1.62.04-3.25.13-4.87.27-.45.04-.78.28-.75.54.12.93.23,1.87.34,2.81.03.26.4.43.82.4,1.54-.13,3.09-.21,4.63-.25.43-.01.76-.22.75-.48-.04-.94-.07-1.88-.11-2.83-.01-.25-.36-.45-.79-.45h-.03M40.95,33.23c-.19-.52-.38-1.04-.57-1.57-.05-.14.05-.32.23-.38.64-.24,1.29-.47,1.94-.69.18-.06.36.01.4.16.16.53.33,1.06.49,1.59.04.15-.06.31-.23.37-.62.21-1.24.43-1.86.67-.04.02-.09.02-.13.02-.12,0-.23-.06-.27-.17M32.49,30.6c-.18-.36-.36-.72-.53-1.08-.05-.1.02-.24.16-.31.49-.26.98-.51,1.48-.75.14-.07.28-.04.33.06.16.36.33.73.49,1.1.04.1-.02.23-.16.3-.48.24-.96.48-1.44.73-.05.03-.11.04-.15.04-.08,0-.14-.03-.17-.09M21.5,30.42c-.28-.42-.56-.83-.84-1.25-.03-.13-.06-.26-.09-.39.04-.08.1-.17.19-.24.7-.52,1.42-1.02,2.14-1.51.2-.13.42-.13.5,0,.28.48.57.95.86,1.43.08.13-.01.34-.2.47-.69.47-1.38.96-2.07,1.47-.1.07-.21.11-.3.11-.08,0-.15-.03-.19-.09M47.24,27.7c-.11-.55-.23-1.09-.34-1.64-.03-.15.1-.31.29-.35.66-.15,1.33-.28,1.99-.41,0,.04.08.08.17.12.08.26.21.51.4.73.01.05.01.12.02.17.01.01,0,.05.02.07.04.24.03.53.07.77.2-.04.41-.09.52,0,.01.01.02.02.04.03.18.14.75-.28,1.09-.34.19-.03.44.36.46.51.02.41.24,1.09.19,1.15h0s.02.31.06.44c.02.15-.18.12-.36.14-.65.07-1.3.18-1.95.27-.18.03-.34-.09-.37-.24-.09-.53-.18-1.05-.27-1.58-.55.1-1.1.22-1.65.34-.03,0-.06,0-.09,0-.15,0-.28-.08-.3-.21M42.82,26.16c-.11-.39-.21-.77-.32-1.16-.03-.11.06-.23.21-.27.52-.15,1.04-.3,1.56-.44.14-.04.28.02.3.12.09.39.18.78.27,1.17.03.11-.07.22-.21.26-.51.14-1.01.28-1.52.43-.03,0-.06.01-.1.01-.1,0-.19-.05-.21-.13M36.46,25.49c-.19-.52-.39-1.04-.58-1.56-.05-.14.07-.33.27-.41.74-.3,1.49-.59,2.24-.86.21-.07.41-.02.46.13.17.53.33,1.06.5,1.59.05.15-.08.32-.28.39-.72.26-1.44.54-2.16.83-.06.03-.13.04-.19.04-.12,0-.23-.05-.26-.15M46.52,20.68c-.1-.55-.2-1.1-.29-1.65-.03-.15.13-.31.35-.36.47-.1.94-.19,1.41-.28.32-.06.64-.12.96-.17.22-.04.41.06.43.21.07.55.14,1.11.21,1.66.02.15-.14.3-.34.34-.29.09-.57.18-.85.28,0-.04-.02-.08-.03-.12-.47.09-.94.18-1.41.28-.04,0-.07.01-.11.01-.16,0-.3-.08-.32-.2M40.47,20.55c-.15-.54-.29-1.07-.44-1.61-.04-.15.1-.32.32-.39.8-.25,1.6-.48,2.4-.69.22-.06.43.01.46.17.12.54.24,1.09.36,1.63.03.15-.11.31-.33.37-.78.21-1.55.43-2.32.67-.06.02-.11.03-.16.03-.14,0-.26-.06-.29-.17M58.23,19.14c0-.56.01-1.12.02-1.67,0-.15.18-.28.4-.29.8-.01,1.6-.01,2.4,0,.22,0,.39.13.38.29-.04.56-.07,1.11-.11,1.67,0,.15-.19.27-.4.27-.77-.01-1.54-.01-2.31,0h0c-.21,0-.37-.12-.37-.27M28.21,19.76c-.23-.51-.45-1.02-.68-1.52-.06-.14.07-.35.3-.46.82-.41,1.65-.81,2.48-1.19.23-.11.46-.07.51.07.2.52.4,1.04.6,1.56.06.14-.08.34-.3.44-.81.37-1.61.75-2.41,1.16-.09.05-.19.07-.27.07-.11,0-.2-.04-.24-.12M35.96,17.15c-.12-.38-.24-.77-.36-1.15-.03-.1.07-.24.24-.3.6-.22,1.21-.43,1.82-.63.17-.05.32-.01.35.09.11.39.21.77.32,1.16.03.11-.08.24-.24.29-.59.2-1.19.41-1.77.62-.05.02-.11.03-.15.03-.1,0-.18-.04-.2-.11M59.41,15.3c-.03-.91-.07-1.82-.1-2.73,0-.25.3-.46.68-.48,1.41-.04,2.82-.04,4.23,0,.39.01.69.23.68.48-.04.91-.08,1.82-.12,2.74-.01.25-.32.44-.68.43-1.34-.04-2.67-.04-4.01,0h-.03c-.35,0-.64-.19-.65-.43M32.91,12.94c-.17-.52-.34-1.04-.51-1.57.1-.15.2-.3.31-.44.01,0,.03-.02.04-.02.9-.35,1.8-.67,2.71-.98.25-.09.49-.03.52.12.14.54.29,1.08.44,1.61.04.15-.12.33-.37.41-.88.3-1.76.62-2.63.96-.09.03-.17.05-.25.05-.13,0-.24-.05-.27-.14M43.18,12.2c-.15-.81-.3-1.61-.44-2.42-.04-.22.22-.47.59-.56.36-.08.71-.16,1.07-.24.76.96,1.52,1.92,2.27,2.89-.93.18-1.86.37-2.78.58-.08.02-.15.03-.23.03-.25,0-.45-.1-.49-.28M40.46,8.62c-.07-.37-.15-.73-.22-1.1.32-.22.64-.48.95-.7.42-.14.85-.28,1.27-.4.05-.02.1-.01.15,0,.14.04.25.16.27.24.02.14.07.35.09.5.04.25.09.54.13.79.02.11-.11.25-.29.29-.66.15-1.32.33-1.99.5-.05.01-.1.02-.14.02-.12,0-.21-.05-.23-.12M42.41,6.41c-.17.02-.35.03-.52.03.18-.06.35-.08.52-.03M73.83,2.62c-.1,1.01-.21,2.01-.31,3.02,0,.06.55.44.59.44-2.54-.36-5.1-.58-7.65-.68-.43-.02-.79,0-.79.25,0,1.48-.01,2.95-.02,4.43-3.43-.1-6.87.04-10.28.42.11,1.19.22,2.39.33,3.59.03.36-.38.69-.91.75-1.96.21-3.91.51-5.84.9-.53.11-.86-.12-.93-.48-.19-1.18-.38-2.36-.56-3.54-.02-.12-.05-.24-.07-.35-.07-.35-.16-1.33.42-1.44.12-.02.24-.05.35-.07,1.37-.15,2.74-.26,4.1-.34-.29-1.61-1.15-4.12-1.45-5.72-3.98.57-7.93,1.41-11.89,2.47C1.2,16.32,15.07,48.2,26.59,52.1c.02-3.33,1.39-6.33,4.1-8.99,2.33-2.29,4.84-4.26,7.51-5.92,6.54-3.91,12.29-5.21,15.44-5.67.65-.09,1.32-.17,1.99-.25.1.11.16.17.16.17-.42-2.81-.85-5.62-1.3-8.43-1.09.07-2.18.17-3.27.31-.33.05-.61-.15-.64-.4-.11-.91-.22-1.82-.33-2.73-.03-.25.23-.5.58-.55,1.27-.18,2.53-.33,3.8-.43.35-.03.64.15.65.4.03.75.06,1.51.09,2.26,3.49-.46,7.02-.62,10.54-.47,0-.03,0-.06.01-.09.02-.15.2-.26.41-.24.51.06,1.01.12,1.51.18.03-.04.07-.08.1-.12.21-3.31.4-6.62.56-9.93,1.92.15,3.82.39,5.72.7.02,0,.02,0,.04,0-.2,1.51-.41,3.02-.62,4.54-.04.25.92.21,1.29.28,2.44.43,4.87,1,7.26,1.71.36.11.69.38.77.13.48-1.65.96-3.31,1.43-4.97.03-.1-.04-.29-.11-.4,0,0,0-.02,0-.04,0-.02,0-.04,0-.04,1.53.46,3.04.98,4.55,1.55.39.14,1.35.44,1.44.2.36-.95.71-1.9,1.07-2.86.09-.25-.84-.76-1.25-.91-1.58-.6-3.18-1.14-4.79-1.62-.41-.12-1.29-.23-1.35.02-.25.98-.51,1.96-.76,2.95-.03.1.25.31.32.41,0,0,.05.02.11.05.05.02.11.04.11.05-2.6-.77-5.23-1.38-7.88-1.85-.4-.07-1.43-.09-1.46.17.21-1.6.42-3.2.63-4.81,0-.06.74-.17.71-.17,1.37.22,2.74.48,4.1.78.42.09,1.43.22,1.49-.03.21-.99.42-1.99.62-2.98.05-.26-.96-.61-1.4-.7-1.74-.38-3.48-.69-5.24-.95-.16-.02-.39-.04-.62-.04-.41,0-.81.05-.83.22"></path></clipPath><linearGradient id="linear-gradient" x1="-96.56" y1="263.89" x2="-95.56" y2="263.89" gradientTransform="translate(45434.41 -16414.02) rotate(-90) scale(171.94 -171.94)" gradientUnits="userSpaceOnUse"><stop offset="0" stop-color="#2ca4dd"></stop><stop offset=".19" stop-color="#2ca4dd"></stop><stop offset=".48" stop-color="#6378bc"></stop><stop offset=".83" stop-color="#a04898"></stop><stop offset="1" stop-color="#b9368b"></stop></linearGradient></defs><g class="cls-6"><rect class="cls-5" x="629.62" y="-19.74" width="194.43" height="198.51" transform="translate(114.38 478.9) rotate(-39.35)"></rect></g><g><g class="cls-7"><rect class="cls-4" x="-35.38" y="-19.74" width="194.43" height="198.51" transform="translate(-36.4 57.24) rotate(-39.35)"></rect></g><g><rect class="cls-3" x="141.96" width="1.36" height="159.93"></rect><path class="cls-3" d="M187.22,79.47c5.96,0,10.48-1.36,13.56-4.07,3.07-2.71,4.61-6.21,4.61-10.48,0-3.74-1.18-6.76-3.54-9.08-2.36-2.31-6.08-4.23-11.15-5.74l-11.62-3.47c-5.7-1.69-10.17-4.18-13.42-7.48-3.25-3.29-4.87-7.75-4.87-13.36,0-3.38.64-6.43,1.94-9.15,1.29-2.72,3.14-5.01,5.54-6.88,2.4-1.87,5.27-3.32,8.61-4.34,3.34-1.02,7.1-1.54,11.29-1.54,3.56,0,6.88.29,9.95.87,3.07.58,5.74,1.38,8.01,2.4,2.27,1.02,4.03,2.16,5.28,3.41,1.25,1.25,1.87,2.54,1.87,3.87,0,1.25-.31,2.32-.94,3.2-.62.89-1.42,1.6-2.4,2.14-2.32-1.78-5.32-3.34-9.01-4.67-3.7-1.34-7.81-2-12.35-2-5.25,0-9.37,1.11-12.35,3.34-2.98,2.23-4.47,5.34-4.47,9.35,0,3.12,1.07,5.65,3.21,7.61,2.14,1.96,5.7,3.65,10.68,5.08l8.15,2.4c7.03,2.05,12.57,4.92,16.63,8.62,4.05,3.69,6.08,8.84,6.08,15.42,0,7.04-2.54,12.73-7.61,17.1-5.07,4.36-12.29,6.54-21.64,6.54-4.1,0-7.81-.36-11.15-1.07s-6.19-1.65-8.55-2.8c-2.36-1.15-4.19-2.43-5.48-3.81-1.29-1.38-1.94-2.74-1.94-4.07,0-1.51.47-2.78,1.4-3.81.94-1.02,2.03-1.76,3.27-2.2.98.98,2.18,1.98,3.61,3.01,1.42,1.02,3.07,1.96,4.94,2.8,1.87.85,3.96,1.54,6.28,2.07,2.31.54,4.85.8,7.61.8"></path><path class="cls-3" d="M300.21,35.26c-2.49-2.05-5.83-3.07-10.02-3.07-5.79,0-10.95,2.05-15.49,6.14.53,1.78.8,3.7.8,5.74v42.47c-.45.18-1.13.38-2.07.6-.94.22-1.89.33-2.87.33-3.83,0-5.74-1.6-5.74-4.81v-37.8c0-4.36-1.25-7.57-3.74-9.62-2.49-2.05-5.88-3.07-10.15-3.07-2.85,0-5.54.45-8.08,1.34-2.54.89-4.7,1.92-6.48,3.07v49.95c-.45.18-1.12.38-2,.6-.89.22-1.87.33-2.94.33-3.83,0-5.74-1.6-5.74-4.81v-45.54c0-1.78.38-3.27,1.14-4.47.76-1.2,2.07-2.42,3.94-3.67,2.4-1.51,5.45-2.82,9.15-3.94,3.69-1.11,7.41-1.67,11.15-1.67,4.36,0,8.23.65,11.62,1.94,3.38,1.29,5.96,3.05,7.75,5.27,2.31-2.05,5.21-3.76,8.68-5.14,3.47-1.38,7.43-2.07,11.89-2.07,7.21,0,12.96,1.71,17.23,5.14,4.27,3.43,6.41,8.7,6.41,15.83v42.2c-.45.18-1.14.38-2.07.6-.93.22-1.89.33-2.87.33-3.83,0-5.74-1.6-5.74-4.81v-37.8c0-4.36-1.25-7.57-3.74-9.62"></path><path class="cls-3" d="M349.89,23.38c7.75,0,13.89,1.74,18.43,5.21,4.54,3.47,6.81,8.95,6.81,16.43v31.65c0,1.96-.38,3.45-1.14,4.47-.76,1.02-1.89,1.98-3.41,2.87-2.14,1.25-4.96,2.34-8.48,3.27-3.52.94-7.55,1.4-12.09,1.4-8.37,0-14.85-1.65-19.43-4.94-4.59-3.29-6.88-8.06-6.88-14.29,0-5.88,1.91-10.3,5.74-13.29,3.83-2.98,9.21-4.83,16.16-5.54l18.96-1.87v-3.74c0-4.45-1.34-7.7-4.01-9.75-2.67-2.05-6.28-3.07-10.82-3.07-3.74,0-7.26.53-10.55,1.6-3.3,1.07-6.23,2.27-8.81,3.61-.71-.62-1.36-1.34-1.94-2.14-.58-.8-.87-1.69-.87-2.67,0-1.24.31-2.27.93-3.07.62-.8,1.6-1.56,2.94-2.27,2.4-1.25,5.16-2.2,8.28-2.87,3.11-.67,6.5-1,10.15-1M350.02,79.87c3.74,0,6.83-.38,9.28-1.13,2.45-.76,4.21-1.49,5.27-2.2v-19.37l-16.56,1.74c-4.63.45-8.06,1.49-10.28,3.14-2.23,1.65-3.34,4.07-3.34,7.28,0,3.38,1.29,5.99,3.87,7.81,2.58,1.83,6.5,2.74,11.75,2.74"></path><path class="cls-3" d="M398.64,86.55c-.45.18-1.11.38-2,.6-.89.22-1.87.33-2.94.33-3.83,0-5.74-1.6-5.74-4.81v-45.27c0-2.05.38-3.67,1.13-4.88.76-1.2,2.02-2.38,3.81-3.54,2.31-1.51,5.45-2.82,9.42-3.94,3.96-1.11,8.43-1.67,13.42-1.67,7.12,0,10.68,1.78,10.68,5.34,0,.89-.13,1.71-.4,2.47-.27.76-.62,1.4-1.07,1.94-.89-.18-2.05-.35-3.47-.53-1.42-.18-2.85-.27-4.27-.27-4.1,0-7.7.42-10.82,1.27-3.12.85-5.7,1.85-7.75,3.01v49.95Z"></path><path class="cls-3" d="M453.39,88.55c-6.23,0-11.28-1.38-15.16-4.14-3.87-2.76-5.81-7.35-5.81-13.76V7.22c.45-.18,1.14-.38,2.07-.6.93-.22,1.94-.33,3.01-.33,3.74,0,5.61,1.6,5.61,4.81v15.36h21.9c.27.45.53,1.05.8,1.8.27.76.4,1.58.4,2.47,0,3.03-1.33,4.54-4.01,4.54h-19.1v34.72c0,3.56,1,6.08,3.01,7.55,2,1.47,4.83,2.2,8.48,2.2,1.51,0,3.2-.27,5.08-.8,1.87-.54,3.43-1.16,4.67-1.87.53.53,1.02,1.2,1.47,2,.45.8.67,1.74.67,2.8,0,1.96-1.16,3.56-3.47,4.81-2.32,1.24-5.52,1.87-9.62,1.87"></path><path class="cls-3" d="M499.6,79.47c5.96,0,10.48-1.36,13.56-4.07,3.07-2.71,4.61-6.21,4.61-10.48,0-3.74-1.18-6.76-3.54-9.08-2.36-2.31-6.08-4.23-11.15-5.74l-11.62-3.47c-5.7-1.69-10.17-4.18-13.42-7.48-3.25-3.29-4.87-7.75-4.87-13.36,0-3.38.65-6.43,1.94-9.15,1.29-2.72,3.14-5.01,5.54-6.88,2.4-1.87,5.27-3.32,8.61-4.34,3.34-1.02,7.1-1.54,11.28-1.54,3.56,0,6.88.29,9.95.87,3.07.58,5.74,1.38,8.01,2.4,2.27,1.02,4.03,2.16,5.28,3.41,1.25,1.25,1.87,2.54,1.87,3.87,0,1.25-.31,2.32-.94,3.2-.62.89-1.42,1.6-2.4,2.14-2.32-1.78-5.32-3.34-9.02-4.67-3.7-1.34-7.81-2-12.35-2-5.25,0-9.37,1.11-12.35,3.34-2.98,2.23-4.47,5.34-4.47,9.35,0,3.12,1.07,5.65,3.21,7.61,2.14,1.96,5.7,3.65,10.68,5.08l8.15,2.4c7.03,2.05,12.57,4.92,16.63,8.62,4.05,3.69,6.08,8.84,6.08,15.42,0,7.04-2.54,12.73-7.61,17.1-5.08,4.36-12.29,6.54-21.64,6.54-4.1,0-7.81-.36-11.15-1.07s-6.19-1.65-8.55-2.8c-2.36-1.15-4.19-2.43-5.48-3.81-1.29-1.38-1.94-2.74-1.94-4.07,0-1.51.47-2.78,1.4-3.81.93-1.02,2.02-1.76,3.27-2.2.98.98,2.18,1.98,3.61,3.01,1.42,1.02,3.07,1.96,4.94,2.8,1.87.85,3.96,1.54,6.28,2.07,2.31.54,4.85.8,7.61.8"></path><path class="cls-3" d="M546.61,62.24c2.4,11.66,10.06,17.5,22.97,17.5,3.74,0,7.12-.62,10.15-1.87,3.03-1.25,5.43-2.58,7.21-4.01,2.14,1.25,3.2,2.94,3.2,5.07,0,1.25-.56,2.45-1.67,3.61-1.12,1.16-2.63,2.18-4.54,3.07-1.92.89-4.14,1.6-6.68,2.14-2.54.53-5.28.8-8.21.8-10.33,0-18.5-2.8-24.51-8.41-6.01-5.61-9.02-13.8-9.02-24.57,0-5.08.73-9.59,2.2-13.56,1.47-3.96,3.52-7.32,6.14-10.08,2.62-2.76,5.76-4.88,9.41-6.34,3.65-1.47,7.61-2.2,11.89-2.2,4.01,0,7.7.67,11.08,2,3.38,1.34,6.3,3.23,8.75,5.68,2.45,2.45,4.36,5.34,5.74,8.68,1.38,3.34,2.07,7.01,2.07,11.02,0,1.96-.45,3.36-1.34,4.21-.89.85-2.14,1.36-3.74,1.54l-41.13,5.74ZM565.04,32.06c-5.43,0-9.93,1.89-13.49,5.68-3.56,3.79-5.43,9.19-5.61,16.23l36.73-5.08c-.45-4.9-2.16-8.92-5.14-12.09-2.98-3.16-7.14-4.74-12.49-4.74"></path><path class="cls-3" d="M623.54,23.38c7.75,0,13.89,1.74,18.43,5.21,4.54,3.47,6.81,8.95,6.81,16.43v31.65c0,1.96-.38,3.45-1.13,4.47-.76,1.02-1.89,1.98-3.41,2.87-2.14,1.25-4.96,2.34-8.48,3.27-3.52.94-7.55,1.4-12.09,1.4-8.37,0-14.85-1.65-19.43-4.94-4.59-3.29-6.88-8.06-6.88-14.29,0-5.88,1.91-10.3,5.74-13.29,3.83-2.98,9.22-4.83,16.16-5.54l18.96-1.87v-3.74c0-4.45-1.34-7.7-4.01-9.75-2.67-2.05-6.28-3.07-10.82-3.07-3.74,0-7.26.53-10.55,1.6-3.29,1.07-6.23,2.27-8.81,3.61-.71-.62-1.36-1.34-1.94-2.14-.58-.8-.87-1.69-.87-2.67,0-1.24.31-2.27.93-3.07.62-.8,1.6-1.56,2.94-2.27,2.4-1.25,5.16-2.2,8.28-2.87,3.11-.67,6.5-1,10.15-1M623.67,79.87c3.74,0,6.83-.38,9.28-1.13,2.45-.76,4.21-1.49,5.28-2.2v-19.37l-16.56,1.74c-4.63.45-8.06,1.49-10.28,3.14-2.23,1.65-3.34,4.07-3.34,7.28,0,3.38,1.29,5.99,3.87,7.81,2.58,1.83,6.5,2.74,11.75,2.74"></path><path class="cls-1" d="M438.11,110.47c-.96,0-1.69.72-1.69,1.69v35.13h9.87c.96,0,1.68-.72,1.68-1.69v-35.13h-9.87Z"></path><path class="cls-1" d="M451.95,110.47c-.96,0-1.69.72-1.69,1.69v8.9h11.79v26.23h9.87c.96,0,1.68-.72,1.68-1.69v-24.54h11.91l3.97-10.59h-37.54,0Z"></path><path class="cls-1" d="M400.57,122.02h0c0,8.18,7.82,10.47,15.76,12.15,4.09.84,5.41,1.44,5.41,2.65v.12c0,1.2-1.2,1.81-3.37,1.81-4.81,0-10.35-1.81-14.08-4.57l-4.69,8.78c4.33,3.37,11.07,5.41,18.29,5.41,10.23,0,16.48-4.81,16.48-12.63v-.12c0-7.58-6.38-10.23-16-12.03-3.85-.72-5.17-1.44-5.17-2.65v-.12c0-.48.24-1.69,2.89-1.69,3.13,0,7.82.72,12.51,4.33l4.81-8.9c-4.45-3.49-9.75-5.05-16.84-5.05-9.75-.12-16,4.81-16,12.51"></path><path class="cls-1" d="M493.34,110.47c-.96,0-1.81.6-2.17,1.45l-13.36,35.37h12.63l7.94-20.94,2.53,6.62h-2.77l-3.61,9.63h9.99l1.68,4.57h12.64l-13.24-35.25c-.36-.84-1.2-1.45-2.17-1.45h-10.11Z"></path><path class="cls-1" d="M175.88,132.59c-1.6,1.49-4,2.24-7.2,2.24h-5.73v12.11h-2.85v-28.42h8.58c3.17,0,5.56.74,7.17,2.24s2.42,3.47,2.42,5.93-.8,4.41-2.4,5.9h0ZM175.36,126.69c0-1.9-.53-3.34-1.59-4.31-1.06-.97-2.75-1.47-5.08-1.47h-5.73v11.46h5.73c4.44,0,6.67-1.9,6.67-5.69h0Z"></path><path class="cls-1" d="M186.68,145.86c-1.67-.93-2.98-2.26-3.94-3.98-.96-1.72-1.44-3.73-1.44-6.04s.49-4.32,1.46-6.04c.98-1.72,2.3-3.05,3.98-3.99,1.68-.94,3.57-1.4,5.65-1.4s3.98.47,5.67,1.4c1.69.93,3.02,2.26,3.99,3.99.96,1.72,1.44,3.73,1.44,6.04s-.49,4.28-1.46,6.01c-.98,1.74-2.32,3.07-4.03,4.01-1.71.94-3.61,1.4-5.69,1.4s-3.96-.47-5.63-1.4M196.37,143.79c1.24-.66,2.26-1.67,3.03-3.01.77-1.34,1.16-2.99,1.16-4.94s-.38-3.6-1.14-4.94c-.76-1.34-1.76-2.34-3.01-3.01-1.25-.66-2.6-1-4.07-1s-2.82.33-4.07,1c-1.25.66-2.24,1.67-2.99,3.01-.74,1.34-1.12,2.99-1.12,4.94s.37,3.6,1.12,4.94c.74,1.34,1.73,2.35,2.97,3.01,1.23.66,2.58,1,4.05,1s2.82-.33,4.07-1"></path><polygon class="cls-1" points="237.52 124.74 230.56 146.93 227.72 146.93 221.58 128.31 215.44 146.93 212.55 146.93 205.6 124.74 208.49 124.74 214.02 144.05 220.24 124.74 223.08 124.74 229.22 144.09 234.71 124.74 237.51 124.74 237.52 124.74"></polygon><path class="cls-1" d="M260.93,136.94h-18.42c.08,1.68.49,3.12,1.22,4.31.73,1.19,1.69,2.09,2.89,2.7,1.19.61,2.49.92,3.9.92,1.84,0,3.39-.45,4.65-1.34,1.26-.9,2.09-2.1,2.5-3.62h3.01c-.54,2.17-1.7,3.93-3.48,5.3-1.78,1.37-4.01,2.05-6.69,2.05-2.09,0-3.96-.47-5.61-1.4-1.65-.94-2.95-2.26-3.88-3.98-.93-1.72-1.4-3.73-1.4-6.04s.46-4.32,1.38-6.06c.92-1.73,2.21-3.06,3.86-3.99,1.65-.92,3.54-1.38,5.65-1.38s3.96.46,5.55,1.38c1.59.92,2.8,2.16,3.66,3.72.85,1.56,1.28,3.29,1.28,5.18,0,.98-.03,1.72-.08,2.24h0ZM257.13,130.39c-.69-1.16-1.63-2.05-2.82-2.64-1.19-.6-2.49-.9-3.9-.9-2.11,0-3.92.68-5.41,2.03s-2.32,3.26-2.48,5.73h15.61c.03-1.65-.3-3.06-.99-4.23h0Z"></path><path class="cls-1" d="M271.48,125.47c1.29-.76,2.87-1.14,4.74-1.14v2.97h-.77c-2.06,0-3.71.56-4.96,1.67-1.25,1.11-1.87,2.97-1.87,5.57v12.4h-2.85v-22.19h2.85v3.94c.62-1.38,1.58-2.45,2.87-3.21h0Z"></path><path class="cls-1" d="M300.04,136.94h-18.42c.08,1.68.49,3.12,1.22,4.31.73,1.19,1.69,2.09,2.89,2.7,1.19.61,2.49.92,3.9.92,1.84,0,3.39-.45,4.65-1.34,1.26-.9,2.09-2.1,2.5-3.62h3.01c-.54,2.17-1.7,3.93-3.48,5.3-1.78,1.37-4.01,2.05-6.69,2.05-2.09,0-3.96-.47-5.61-1.4-1.65-.94-2.95-2.26-3.88-3.98-.93-1.72-1.4-3.73-1.4-6.04s.46-4.32,1.38-6.06c.92-1.73,2.21-3.06,3.86-3.99,1.65-.92,3.53-1.38,5.65-1.38s3.96.46,5.55,1.38c1.59.92,2.8,2.16,3.66,3.72.85,1.56,1.28,3.29,1.28,5.18,0,.98-.03,1.72-.08,2.24h0ZM296.24,130.39c-.69-1.16-1.63-2.05-2.82-2.64-1.19-.6-2.49-.9-3.9-.9-2.11,0-3.92.68-5.41,2.03s-2.32,3.26-2.48,5.73h15.61c.03-1.65-.3-3.06-.99-4.23h0Z"></path><path class="cls-1" d="M304.96,129.8c.92-1.72,2.19-3.05,3.8-3.99,1.61-.93,3.43-1.4,5.47-1.4s3.71.47,5.28,1.42c1.57.95,2.72,2.18,3.45,3.7v-12.68h2.85v30.08h-2.85v-4.96c-.68,1.55-1.79,2.81-3.33,3.8-1.55.99-3.36,1.48-5.45,1.48s-3.86-.47-5.47-1.42c-1.61-.95-2.87-2.29-3.78-4.02-.91-1.73-1.36-3.74-1.36-6.02s.46-4.28,1.38-6h0ZM321.87,131.12c-.73-1.35-1.73-2.4-2.99-3.13-1.26-.73-2.65-1.1-4.17-1.1s-2.98.35-4.23,1.06c-1.25.7-2.23,1.73-2.95,3.07-.72,1.34-1.08,2.93-1.08,4.78s.36,3.41,1.08,4.78c.72,1.37,1.7,2.41,2.95,3.13,1.24.72,2.66,1.08,4.23,1.08s2.91-.37,4.17-1.1c1.26-.73,2.26-1.78,2.99-3.13s1.1-2.93,1.1-4.72-.37-3.36-1.1-4.72h0Z"></path><path class="cls-1" d="M348.76,125.88c1.53-.97,3.34-1.46,5.43-1.46s3.85.47,5.45,1.4,2.85,2.26,3.76,3.99c.91,1.72,1.36,3.72,1.36,5.99s-.45,4.28-1.36,6.02c-.91,1.74-2.17,3.08-3.78,4.03s-3.42,1.42-5.43,1.42c-2.11,0-3.93-.48-5.47-1.44-1.53-.96-2.65-2.22-3.35-3.76v4.88h-2.8v-30.08h2.8v12.8c.73-1.55,1.86-2.8,3.39-3.78h0ZM360.79,131.02c-.72-1.34-1.7-2.36-2.95-3.07-1.24-.7-2.66-1.06-4.23-1.06s-2.91.37-4.17,1.1c-1.26.73-2.26,1.78-2.99,3.13-.73,1.36-1.1,2.93-1.1,4.72s.37,3.36,1.1,4.72c.73,1.35,1.73,2.4,2.99,3.13,1.26.73,2.65,1.1,4.17,1.1s2.98-.36,4.23-1.08c1.25-.72,2.23-1.76,2.95-3.13.72-1.37,1.08-2.96,1.08-4.78s-.36-3.43-1.08-4.78h0Z"></path><polygon class="cls-1" points="387.85 124.74 374.67 157.38 371.71 157.38 376.02 146.81 366.91 124.74 370.04 124.74 377.6 143.68 384.92 124.74 387.85 124.74"></polygon></g></g></svg> 